<svg xmlns="http://www.w3.org/2000/svg" width="45" height="44" fill="none"><path fill="#fff" d="M22.801 3.667C12.681 3.667 4.468 11.88 4.468 22S12.68 40.334 22.8 40.334 41.134 32.12 41.134 22 32.921 3.667 22.801 3.667m-7.461 14.19a1.356 1.356 0 0 1-1.742.843c-.715-.256-1.1-1.026-.844-1.741a4.11 4.11 0 0 1 3.887-2.769c1.76 0 3.319 1.1 3.887 2.769.238.715-.128 1.503-.843 1.741a1.3 1.3 0 0 1-.459.074 1.37 1.37 0 0 1-1.302-.935 1.37 1.37 0 0 0-1.283-.899c-.568 0-1.1.367-1.283.899zM22.8 33c-3.685 0-6.728-2.713-7.26-6.251-.073-.569.348-1.082.917-1.082h12.687c.568 0 .99.513.916 1.082A7.32 7.32 0 0 1 22.801 33M32.17 18.72a1.3 1.3 0 0 1-.459.073 1.37 1.37 0 0 1-1.302-.935 1.37 1.37 0 0 0-1.283-.898c-.568 0-1.1.366-1.283.898a1.356 1.356 0 0 1-1.742.843c-.715-.256-1.1-1.026-.843-1.741a4.11 4.11 0 0 1 3.887-2.769c1.76 0 3.318 1.1 3.886 2.769.239.715-.128 1.503-.843 1.741z"/></svg>