<svg xmlns="http://www.w3.org/2000/svg" width="36" height="34" fill="none"><path fill="#fff" d="M34.115 16.7h-2.75a3.666 3.666 0 0 0-3.667 3.667 3.666 3.666 0 0 0 3.667 3.666h2.75c.506 0 .917.411.917.917v4.584a3.666 3.666 0 0 1-3.667 3.666h-6.417a.917.917 0 0 1-.916-.917v-2.75a3.666 3.666 0 0 0-3.667-3.666 3.666 3.666 0 0 0-3.667 3.666v2.75c0 .506-.41.917-.916.917h-4.584a3.666 3.666 0 0 1-3.666-3.667V24.95a.917.917 0 0 0-.917-.916h-2.75a3.666 3.666 0 0 1-3.667-3.667A3.666 3.666 0 0 1 3.865 16.7h2.75c.506 0 .917-.41.917-.916V11.2a3.666 3.666 0 0 1 3.666-3.666h4.584c.506 0 .916-.411.916-.917v-2.75A3.666 3.666 0 0 1 20.365.2a3.666 3.666 0 0 1 3.667 3.667v2.75c0 .506.41.917.916.917h6.417a3.666 3.666 0 0 1 3.667 3.666v4.584c0 .505-.411.916-.917.916"/></svg>