<svg xmlns="http://www.w3.org/2000/svg" width="30" height="30" fill="none"><path fill="#AE5DE4" d="m17.372 14.513-3.81-2.177v4.354z"/><path fill="#AE5DE4" fill-rule="evenodd" d="M.5 14.513C.5 6.498 6.998 0 15.013 0s14.514 6.498 14.514 14.513-6.498 14.514-14.514 14.514S.5 22.529.5 14.513m20.137-4.807a1.8 1.8 0 0 1 1.27 1.27c.363 1.179.363 3.537.363 3.537s0 2.359-.272 3.538a1.8 1.8 0 0 1-1.27 1.27c-1.18.272-5.715.272-5.715.272s-4.626 0-5.714-.272a1.8 1.8 0 0 1-1.27-1.27c-.272-1.18-.272-3.538-.272-3.538s0-2.358.181-3.537a1.8 1.8 0 0 1 1.27-1.27c1.18-.272 5.715-.272 5.715-.272s4.626 0 5.714.272" clip-rule="evenodd"/></svg>