<svg xmlns="http://www.w3.org/2000/svg" width="30" height="30" fill="none"><path fill="#AE5DE4" fill-rule="evenodd" d="M0 14.513C0 6.498 6.498 0 14.513 0s14.514 6.498 14.514 14.513-6.498 14.514-14.514 14.514S0 22.529 0 14.513m14.513-7.256c3.992 0 7.257 3.265 7.257 7.256a7.32 7.32 0 0 1-6.259 7.257V16.6h1.724l.363-2.087h-1.996v-1.36c0-.545.272-1.089 1.18-1.089h.906V10.25s-.816-.181-1.633-.181c-1.632 0-2.72.997-2.72 2.812v1.632H11.52V16.6h1.814v5.08c-3.447-.545-6.077-3.538-6.077-7.167 0-3.99 3.265-7.256 7.256-7.256" clip-rule="evenodd"/></svg>