<svg xmlns="http://www.w3.org/2000/svg" width="30" height="30" fill="none"><path fill="#AE5DE4" fill-rule="evenodd" d="M.836 14.513C.836 6.498 7.334 0 15.349 0s14.514 6.498 14.514 14.513-6.498 14.514-14.514 14.514S.836 22.529.836 14.513m7.257 0c0-3.99 3.265-7.256 7.256-7.256s7.257 3.265 7.166 6.893c0 3.992-3.265 7.257-7.256 7.257-.726 0-1.452-.09-2.087-.272.272-.453.545-.998.726-1.542.09-.363.544-1.995.544-1.995.272.453.998.907 1.814.907 2.359 0 3.9-2.177 3.9-4.99 0-2.176-1.813-4.172-4.625-4.172-3.447 0-5.17 2.45-5.17 4.535 0 1.27.453 2.359 1.45 2.812.182.091.273 0 .364-.181.09-.09.18-.454.18-.544.065-.129.038-.166-.015-.241-.022-.031-.048-.069-.075-.122-.272-.363-.453-.816-.453-1.452 0-1.814 1.36-3.446 3.537-3.446 1.905 0 2.994 1.179 2.994 2.812 0 2.177-.907 3.9-2.268 3.9-.816 0-1.36-.635-1.18-1.36.077-.38.2-.774.317-1.15.165-.527.319-1.02.319-1.39 0-.635-.363-1.089-.998-1.089-.726 0-1.36.816-1.36 1.905 0 .726.271 1.18.271 1.18s-.725 3.355-.907 3.99c-.09.545-.09 1.089-.09 1.633a7.2 7.2 0 0 1-4.354-6.622" clip-rule="evenodd"/></svg>