<svg xmlns="http://www.w3.org/2000/svg" width="30" height="30" fill="none"><path fill="#AE5DE4" d="M15.185 17.053a2.535 2.535 0 0 1-2.54-2.54c0-1.36 1.089-2.54 2.54-2.54 1.36 0 2.54 1.089 2.54 2.54 0 1.361-1.18 2.54-2.54 2.54"/><path fill="#AE5DE4" fill-rule="evenodd" d="M18.27 8.345H12.1c-.726.09-1.088.182-1.36.272-.363.091-.635.272-.908.545-.215.215-.317.43-.44.69q-.048.104-.104.217l-.047.133c-.095.26-.225.614-.225 1.227v6.169c.09.725.181 1.088.272 1.36.09.363.272.635.544.907.216.216.431.317.691.44l.217.104.133.048c.26.095.614.225 1.227.225h6.168c.726-.091 1.089-.182 1.361-.273.363-.09.635-.272.907-.544.215-.215.317-.43.44-.69q.048-.104.104-.217l.048-.134c.095-.259.224-.613.224-1.227V11.43c-.09-.725-.181-1.088-.272-1.36-.09-.363-.272-.635-.544-.907-.215-.216-.43-.318-.69-.44q-.104-.049-.217-.105l-.134-.047c-.26-.095-.613-.225-1.227-.225m-3.085 2.268a3.87 3.87 0 0 0-3.9 3.9c0 2.177 1.723 3.9 3.9 3.9s3.9-1.723 3.9-3.9-1.723-3.9-3.9-3.9m4.899-.09a.907.907 0 1 1-1.815 0 .907.907 0 0 1 1.815 0" clip-rule="evenodd"/><path fill="#AE5DE4" fill-rule="evenodd" d="M.672 14.513C.672 6.498 7.17 0 15.185 0S29.7 6.498 29.7 14.513 23.2 29.027 15.185 29.027.672 22.529.672 14.513m11.43-7.528h6.167c.817.09 1.361.181 1.815.362.544.273.907.454 1.36.907.454.454.726.908.907 1.361.182.454.363.998.363 1.814v6.169c-.09.816-.181 1.36-.363 1.814-.272.544-.453.907-.907 1.36a4 4 0 0 1-1.36.907 4.55 4.55 0 0 1-1.815.363h-6.168c-.816-.09-1.36-.181-1.814-.363-.544-.272-.907-.453-1.36-.907a4 4 0 0 1-.908-1.36 4.6 4.6 0 0 1-.363-1.814v-6.169c.091-.816.182-1.36.363-1.814.272-.544.454-.907.907-1.36a4 4 0 0 1 1.361-.908 4.55 4.55 0 0 1 1.814-.362" clip-rule="evenodd"/></svg>