<svg xmlns="http://www.w3.org/2000/svg" width="30" height="30" fill="none"><path fill="#AE5DE4" fill-rule="evenodd" d="M.164 14.513C.164 6.498 6.662 0 14.677 0s14.514 6.498 14.514 14.513-6.498 14.514-14.514 14.514S.164 22.529.164 14.513m20.047-4.081c.635-.091 1.179-.182 1.723-.454a4.2 4.2 0 0 1-1.542 1.542c.181 4.263-2.903 8.89-8.436 8.89-1.633 0-3.175-.545-4.535-1.361 1.542.181 3.175-.272 4.263-1.089a2.94 2.94 0 0 1-2.812-2.086c.454.09.907 0 1.36-.09-1.36-.364-2.358-1.633-2.358-2.994.454.181.907.363 1.36.363-1.269-.907-1.723-2.63-.906-3.991 1.542 1.814 3.719 2.993 6.168 3.084-.453-1.815.998-3.629 2.903-3.629.816 0 1.633.363 2.177.907.725-.181 1.36-.362 1.905-.725-.182.725-.635 1.27-1.27 1.633" clip-rule="evenodd"/></svg>