<svg xmlns="http://www.w3.org/2000/svg" width="30" height="30" fill="none"><path fill="#AE5DE4" fill-rule="evenodd" d="M.336 14.513C.336 6.498 6.834 0 14.849 0s14.514 6.498 14.514 14.513-6.498 14.514-14.514 14.514S.336 22.529.336 14.513m7.438-2.449v9.706h3.084v-9.706zM7.593 8.98c0 .998.725 1.724 1.723 1.724s1.724-.726 1.724-1.724-.726-1.723-1.724-1.723c-.907 0-1.723.725-1.723 1.723m11.429 12.79h2.903v-5.987c0-2.993-1.815-3.99-3.538-3.99-1.542 0-2.63.997-2.903 1.632v-1.36h-2.902v9.705h3.084V16.6c0-1.36.907-2.087 1.814-2.087s1.542.454 1.542 1.996z" clip-rule="evenodd"/></svg>