<svg xmlns="http://www.w3.org/2000/svg" width="44" height="44" fill="none"><path fill="#fff" d="M12.89 36.08c-1.394 1.393-6.692 2.713-7.279 2.86h-.11a.53.53 0 0 1-.33-.128.43.43 0 0 1-.11-.44c.165-.624 1.668-6.142 3.043-7.535.715-.715 1.65-1.119 2.585-1.082.899.018 1.779.403 2.457 1.082 1.375 1.375 1.247 3.721-.275 5.243zm1.301-22.66a9.6 9.6 0 0 0-7.352 5.903l-1.76 4.382a.43.43 0 0 0 .074.458c.091.11.22.165.348.165.037 0 .073 0 .092-.018l6.178-1.375c1.173-3.795 2.328-6.838 4.547-9.955zm6.912 18.81c3.758-1.063 6.801-2.163 9.936-4.363l-.421 1.98c-.513 3.281-2.787 6.086-5.903 7.315l-4.382 1.76s-.11.036-.165.036a.42.42 0 0 1-.294-.11.45.45 0 0 1-.146-.44zm-5.94-13.402 10.101 10.084c-1.155.476-2.364.88-3.703 1.265-.88.256-1.833.513-2.823.788-.074 0-.165.037-.239.037a.93.93 0 0 1-.66-.275l-4.62-4.62a.9.9 0 0 1-.22-.917c.294-.953.569-1.852.844-2.713.421-1.302.843-2.512 1.32-3.649M38.079 6.563a.9.9 0 0 0-.733-.715c-.77-.146-2.218-.348-4.033-.348-3.52 0-8.379.788-12.009 4.437a37 37 0 0 0-2.401 2.621c-1.229 1.504-2.164 2.97-2.915 4.51l.036.019 11 10.981.037.037c1.503-.715 2.915-1.613 4.382-2.787.88-.715 1.796-1.54 2.75-2.493 5.518-5.518 4.326-13.97 3.886-16.262m-10.12 13.64c-2.273 0-4.125-1.833-4.125-4.106a4.13 4.13 0 0 1 4.125-4.125 4.13 4.13 0 0 1 4.125 4.125c0 2.273-1.851 4.106-4.125 4.106"/></svg>