<svg xmlns="http://www.w3.org/2000/svg" width="44" height="44" fill="none"><path fill="#fff" d="M29.779 29.313a1.43 1.43 0 0 0-.413 1.263l1.058 6.136c.215 1.245-1.094 2.195-2.215 1.608l-5.543-2.902a1.43 1.43 0 0 0-1.328 0l-5.54 2.899c-1.124.588-2.435-.363-2.219-1.61l1.057-6.132a1.42 1.42 0 0 0-.413-1.264l-4.622-4.484c-.849-.823-.381-2.262.79-2.431l6.393-.924c.466-.068.867-.36 1.076-.78l2.769-5.585c.56-1.133 2.181-1.133 2.744 0l2.769 5.586c.209.42.61.711 1.076.779l6.393.924c1.171.17 1.64 1.608.79 2.431zM22 10.542c.759 0 1.375-.616 1.375-1.375V5.5a1.376 1.376 0 0 0-2.75 0v3.667c0 .759.616 1.375 1.375 1.375m11 7.333c.759 0 1.375-.616 1.375-1.375v-11a1.376 1.376 0 0 0-2.75 0v11c0 .759.616 1.375 1.375 1.375m-22 0c.759 0 1.375-.616 1.375-1.375v-11a1.376 1.376 0 0 0-2.75 0v11c0 .759.616 1.375 1.375 1.375"/></svg>